<svg width="512" height="512" viewBox="0 0 512 512" fill="none" xmlns="http://www.w3.org/2000/svg">
<g clip-path="url(#clip0)">
<path d="M483.738 9.04819e-07H28.2383C12.6406 0.00781341 -0.00390535 12.6602 9.04819e-07 28.2617V483.762C0.00781341 499.359 12.6602 512.004 28.2617 512H483.738C499.344 512.004 511.996 499.355 512 483.75C512 483.746 512 483.742 512 483.738V28.2383C511.992 12.6406 499.34 -0.00390535 483.738 9.04819e-07Z" fill="#4267B2"/>
<path d="M353.5 512V314H420.25L430.25 236.5H353.5V187.141C353.5 164.754 359.715 149.5 391.816 149.5H432.5V80.3711C425.422 79.4297 401.137 77.3242 372.879 77.3242C313.879 77.3242 273.5 113.324 273.5 179.465V236.5H207V314H273.5V512H353.5Z" fill="white"/>
</g>
<defs>
<clipPath id="clip0">
<rect width="512" height="512" fill="white"/>
</clipPath>
</defs>
</svg>
